<?xml version="1.0" encoding="UTF-8" standalone="no"?>
<!-- Created with Inkscape (http://www.inkscape.org/) -->

<svg
   width="210mm"
   height="297mm"
   viewBox="0 0 210 297"
   version="1.1"
   id="svg5"
   inkscape:version="1.2.2 (732a01da63, 2022-12-09)"
   sodipodi:docname="type30-blue.svg"
   inkscape:export-filename="type30-blue.png"
   inkscape:export-xdpi="95.968765"
   inkscape:export-ydpi="95.968765"
   xmlns:inkscape="http://www.inkscape.org/namespaces/inkscape"
   xmlns:sodipodi="http://sodipodi.sourceforge.net/DTD/sodipodi-0.dtd"
   xmlns:xlink="http://www.w3.org/1999/xlink"
   xmlns="http://www.w3.org/2000/svg"
   xmlns:svg="http://www.w3.org/2000/svg">
  <sodipodi:namedview
     id="namedview7"
     pagecolor="#ffffff"
     bordercolor="#000000"
     borderopacity="0.25"
     inkscape:showpageshadow="2"
     inkscape:pageopacity="0.0"
     inkscape:pagecheckerboard="0"
     inkscape:deskcolor="#d1d1d1"
     inkscape:document-units="mm"
     showgrid="false"
     inkscape:zoom="2"
     inkscape:cx="517"
     inkscape:cy="576"
     inkscape:window-width="1920"
     inkscape:window-height="1009"
     inkscape:window-x="-8"
     inkscape:window-y="-8"
     inkscape:window-maximized="1"
     inkscape:current-layer="layer4"
     showguides="true">
    <inkscape:grid
       type="xygrid"
       id="grid3494" />
  </sodipodi:namedview>
  <defs
     id="defs2">
    <inkscape:path-effect
       effect="gears"
       id="path-effect4236"
       is_visible="true"
       lpeversion="1"
       teeth="12"
       phi="7.8"
       min_radius="7.8" />
    <inkscape:path-effect
       effect="gears"
       id="path-effect4224"
       is_visible="true"
       lpeversion="1"
       teeth="10"
       phi="5"
       min_radius="5" />
  </defs>
  <g
     inkscape:groupmode="layer"
     id="layer7"
     inkscape:label="Layer 1" />
  <g
     inkscape:label="Front"
     inkscape:groupmode="layer"
     id="layer1"
     inkscape:tile-cx="86.370195"
     inkscape:tile-cy="167.41056"
     inkscape:tile-w="37.655166"
     inkscape:tile-h="113.10455"
     inkscape:tile-x0="67.358082"
     inkscape:tile-y0="110.85828"
     transform="matrix(0.97718531,0,0,0.97718531,-43.13274,-16.321155)"
     style="display:inline">
    <path
       id="path2966"
       style="display:inline;fill:#009aff;fill-opacity:1;stroke:#ffffff;stroke-width:1.02335;stroke-dasharray:none;stroke-opacity:1"
       d="m 104.99979,111.24179 h 0.027 c -20.574037,0.0158 -37.296694,16.7033 -37.286202,37.27734 0.01091,20.57 16.689215,37.23952 37.259222,37.23959"
       sodipodi:nodetypes="cccc" />
    <path
       style="display:inline;fill:#009aff;fill-opacity:1;stroke:#ffffff;stroke-width:1.02334735;stroke-dasharray:none;stroke-opacity:1"
       d="m 105,141.89637 c -23.896161,0.87699 -29.112302,3.91979 -37.259413,6.62276 L 105,148.5"
       id="path14417"
       sodipodi:nodetypes="ccc" />
    <path
       style="display:inline;fill:none;stroke:#ffffff;stroke-width:1.1;stroke-dasharray:none;fill-opacity:1;stroke-opacity:1"
       d="m 87.638683,181.78782 -5.592416,17.67783 v 24.36846"
       id="path5934"
       sodipodi:nodetypes="ccc"
       inkscape:label="Legs" />
    <path
       style="display:inline;fill:#009aff;stroke:#ffffff;stroke-width:1;stroke-dasharray:none;fill-opacity:1;stroke-opacity:1"
       d="m 82.001259,211.03464 c -7.09181,12.28337 -7.270761,12.55218 -7.270761,12.55218 h 14.688783 z"
       id="path5936"
       sodipodi:nodetypes="cccc"
       inkscape:label="Shoes" />
    <circle
       style="display:inline;fill:#009aff;fill-opacity:1;stroke:#ffffff;stroke-width:1.02334735;stroke-dasharray:none;stroke-opacity:1"
       id="path14413"
       cx="86.699638"
       cy="137.03558"
       r="4.4782872"
       inkscape:label="Eye" />
    <g
       inkscape:groupmode="layer"
       id="layer2"
       inkscape:label="gear"
       style="display:inline">
      <rect
         style="display:inline;fill:#009aff;fill-opacity:1;stroke:#ffffff;stroke-width:1.02334735;stroke-dasharray:none;stroke-opacity:1"
         id="rect16964"
         width="8.033865"
         height="39.765076"
         x="59.478371"
         y="128.99963"
         ry="0" />
      <path
         style="fill:#009aff;fill-opacity:1;stroke:#ffffff;stroke-width:1;stroke-dasharray:none;stroke-opacity:1"
         d="M 67.358083,134.85277 H 59.367672"
         id="path17088"
         sodipodi:nodetypes="cc" />
      <path
         style="display:inline;fill:#009aff;fill-opacity:1;stroke:#ffffff;stroke-width:1;stroke-dasharray:none;stroke-opacity:1"
         d="m 59.426868,130.88492 h 8.06364"
         id="path17086-4"
         transform="matrix(1,0,0,-1,0,297.2711)"
         sodipodi:nodetypes="cc" />
      <path
         style="display:inline;fill:#009aff;fill-opacity:1;stroke:#ffffff;stroke-width:1;stroke-dasharray:none;stroke-opacity:1"
         d="M 67.490508,134.70803 H 59.500097"
         id="path17088-0"
         transform="matrix(1,0,0,-1,0,297.2711)"
         sodipodi:nodetypes="cc" />
      <path
         style="display:inline;fill:#009aff;fill-opacity:1;stroke:#ffffff;stroke-width:1;stroke-dasharray:none;stroke-opacity:1"
         d="M 67.490506,141.62628 H 59.37046"
         id="path17090-1"
         inkscape:label="path17090-1"
         transform="matrix(1,0,0,-1,0,297.2711)"
         sodipodi:nodetypes="cc" />
      <path
         style="display:inline;fill:#009aff;fill-opacity:1;stroke:#ffffff;stroke-width:1;stroke-dasharray:none;stroke-opacity:1"
         d="m 59.294443,131.24876 h 8.06364"
         id="path17086"
         sodipodi:nodetypes="cc" />
      <path
         style="display:inline;fill:#009aff;fill-opacity:1;stroke:#ffffff;stroke-width:1;stroke-dasharray:none;stroke-opacity:1"
         d="M 67.620141,141.51413 H 59.500095"
         id="path17090"
         sodipodi:nodetypes="cc" />
      <rect
         style="fill:#009aff;fill-opacity:1;stroke:#ffffff;stroke-width:1.02335;stroke-dasharray:none;stroke-opacity:1"
         id="rect19209"
         width="1.4874852"
         height="6.8747997"
         x="57.843384"
         y="145.44478" />
    </g>
    <circle
       style="display:inline;fill:#009aff;fill-opacity:1;stroke:#ffffff;stroke-width:0.765;stroke-opacity:1"
       id="path14420"
       cx="82.046265"
       cy="199.46565"
       r="3.0036585"
       inkscape:label="path14420" />
    <g
       inkscape:groupmode="layer"
       id="layer3"
       inkscape:label="Mask"
       style="display:inline">
      <path
         style="fill:#009aff;fill-opacity:1;stroke:#ffffff;stroke-width:1.02334735;stroke-opacity:1;stroke-dasharray:none"
         d="m 105,146.67839 -38.447667,2.07252 0.09342,20.29457 12.522057,14.41709 25.84544,5.54528"
         id="path14489"
         sodipodi:nodetypes="ccccc" />
      <rect
         style="display:inline;fill:#009aff;fill-opacity:1;stroke:#ffffff;stroke-width:0.812176;stroke-opacity:1"
         id="rect14647"
         width="8.1878242"
         height="22.163952"
         x="79.573898"
         y="151.48109"
         ry="2.3961031" />
      <rect
         style="fill:#009aff;fill-opacity:1;stroke:#ffffff;stroke-width:0.886524;stroke-opacity:1"
         id="rect14647-0"
         width="8.1134758"
         height="26.649548"
         x="93.377594"
         y="150.98062"
         ry="2.8810325" />
    </g>
    <path
       style="fill:#009aff;stroke:#ffffff;stroke-width:1.02334735;stroke-miterlimit:0;stroke-dasharray:none;fill-opacity:1;stroke-opacity:1"
       d="m 105.0153,110.71515 -0.004,-11.401012"
       id="path1536" />
    <path
       id="path16236"
       style="display:inline;fill:#009aff;stroke:#ffffff;stroke-width:0.495488;fill-opacity:1;stroke-opacity:1"
       d="m 105.01329,99.066427 c -2.97166,0 -5.380666,-2.409007 -5.380666,-5.380667 0,-2.97166 2.409006,-5.380666 5.380666,-5.380666"
       sodipodi:nodetypes="csc"
       inkscape:label="path16236" />
  </g>
  <g
     inkscape:groupmode="layer"
     id="layer4"
     inkscape:label="Right"
     style="display:inline">
    <path
       id="path393"
       style="display:inline;fill:#009aff;fill-opacity:1;stroke:#ffffff;stroke-width:1;stroke-miterlimit:0;stroke-dasharray:none;stroke-opacity:1"
       inkscape:label="face"
       d="m 158.22083,93.185289 c -17.09488,0.0051 -31.82861,12.210081 -35.25652,29.205551 14.57195,0.43865 25.6511,3.35846 35.25652,7.32512 l -17.99333,31.62611 c 5.46973,3.20888 11.67535,4.90039 17.99333,4.90456 19.88114,-7e-5 35.99797,-16.35537 35.99804,-36.53067 -7e-5,-20.1753 -16.1169,-36.530598 -35.99804,-36.530671 z"
       sodipodi:nodetypes="ccccccc" />
    <g
       inkscape:groupmode="layer"
       id="layer6"
       inkscape:label="Mask"
       style="display:inline">
      <path
         style="display:inline;fill:#009aff;fill-opacity:1;stroke:#ffffff;stroke-width:0.499999;stroke-miterlimit:0;stroke-opacity:1"
         d="m 126.95039,157.21624 c 0.006,-0.002 0.0126,-0.003 0.0186,-0.005 0.0314,-0.01 0.0621,-0.021 0.092,-0.0336 0.0299,-0.0126 0.059,-0.0265 0.0873,-0.0419 0.0283,-0.0154 0.0561,-0.0322 0.0827,-0.0501 0.0266,-0.0179 0.0518,-0.037 0.0765,-0.0574 0.0247,-0.0204 0.0487,-0.042 0.0713,-0.0646 0.0226,-0.0226 0.0437,-0.0461 0.0641,-0.0708 0.0203,-0.0247 0.0399,-0.0504 0.0579,-0.077 0.0179,-0.0266 0.0343,-0.0538 0.0496,-0.0822 0.0154,-0.0283 0.0298,-0.0579 0.0424,-0.0879 0.0126,-0.0299 0.0239,-0.0606 0.0336,-0.092 0.01,-0.0314 0.0176,-0.063 0.0243,-0.0956 0.007,-0.0326 0.0116,-0.066 0.015,-0.0997 0.003,-0.0337 0.005,-0.0677 0.005,-0.10232 v -24.04194 c 0,-0.0346 -0.002,-0.0686 -0.005,-0.10232 -0.003,-0.0337 -0.008,-0.0671 -0.015,-0.0997 -0.007,-0.0326 -0.0146,-0.0642 -0.0243,-0.0956 -0.01,-0.0314 -0.021,-0.062 -0.0336,-0.092 -0.0126,-0.0299 -0.027,-0.059 -0.0424,-0.0873 -0.0153,-0.0283 -0.0317,-0.0561 -0.0496,-0.0827 -0.0179,-0.0266 -0.0375,-0.0523 -0.0579,-0.077 -0.0203,-0.0247 -0.0415,-0.0482 -0.0641,-0.0708 -0.0226,-0.0226 -0.0466,-0.0442 -0.0713,-0.0646 -0.0247,-0.0203 -0.0499,-0.0394 -0.0765,-0.0574 -0.0266,-0.0179 -0.0543,-0.0348 -0.0827,-0.0501 -0.0283,-0.0154 -0.0574,-0.0292 -0.0873,-0.0419 -0.0299,-0.0126 -0.0606,-0.0239 -0.092,-0.0336 -0.0314,-0.01 -0.0635,-0.0182 -0.0961,-0.0248 -0.0326,-0.007 -0.0655,-0.0116 -0.0992,-0.015 -0.0337,-0.003 -0.0682,-0.005 -0.10284,-0.005 h -2.30425 c -0.0346,0 -0.0686,0.002 -0.10232,0.005 -0.0337,0.003 -0.0671,0.008 -0.0997,0.015 -0.0326,0.007 -0.0648,0.0151 -0.0961,0.0248 -0.0314,0.01 -0.0621,0.021 -0.092,0.0336 -0.0299,0.0126 -0.059,0.0265 -0.0873,0.0419 -0.0283,0.0154 -0.0556,0.0322 -0.0822,0.0501 -0.0266,0.0179 -0.0523,0.037 -0.077,0.0574 -0.0247,0.0204 -0.0487,0.042 -0.0713,0.0646 -0.0226,0.0226 -0.0437,0.0461 -0.0641,0.0708 -0.0203,0.0247 -0.0399,0.0504 -0.0579,0.077 -0.0179,0.0266 -0.0343,0.0543 -0.0496,0.0827 -0.0154,0.0283 -0.0298,0.0574 -0.0424,0.0873 -0.0126,0.0299 -0.0234,0.0606 -0.0331,0.092 -0.01,0.0314 -0.0182,0.063 -0.0248,0.0956 -0.007,0.0326 -0.0116,0.066 -0.015,0.0997 -0.003,0.0337 -0.005,0.0677 -0.005,0.10232 v 18.89704 z"
         id="path8139" />
      <path
         id="path8969"
         style="display:inline;fill:#009aff;fill-opacity:1;stroke:#ffffff;stroke-width:1;stroke-miterlimit:0;stroke-dasharray:none;stroke-opacity:1"
         d="m 120.19953,129.18284 1.77147,19.55074 1.39578,2.37764 v -18.89704 c 0,-0.0346 0.002,-0.0686 0.005,-0.10232 0.003,-0.0337 0.008,-0.0671 0.015,-0.0997 0.007,-0.0326 0.0151,-0.0642 0.0248,-0.0956 0.01,-0.0314 0.0204,-0.062 0.0331,-0.092 0.0126,-0.0299 0.027,-0.059 0.0424,-0.0873 0.0154,-0.0283 0.0317,-0.0561 0.0496,-0.0827 0.0179,-0.0266 0.0375,-0.0523 0.0579,-0.077 0.0203,-0.0247 0.0415,-0.0482 0.0641,-0.0708 0.0226,-0.0226 0.0466,-0.0442 0.0713,-0.0646 0.0247,-0.0203 0.0504,-0.0394 0.077,-0.0574 0.0266,-0.0179 0.0538,-0.0348 0.0822,-0.0501 0.0283,-0.0154 0.0574,-0.0292 0.0873,-0.0419 0.0299,-0.0126 0.0606,-0.0239 0.092,-0.0336 0.0314,-0.01 0.0635,-0.0182 0.0961,-0.0248 0.0326,-0.007 0.066,-0.0116 0.0997,-0.015 0.0337,-0.003 0.0677,-0.005 0.10232,-0.005 h 2.30425 c 0.0346,0 0.0691,0.002 0.10284,0.005 0.0337,0.003 0.0666,0.008 0.0992,0.015 0.0326,0.007 0.0648,0.0151 0.0961,0.0248 0.0314,0.01 0.0621,0.021 0.092,0.0336 0.0299,0.0126 0.059,0.0265 0.0873,0.0419 0.0283,0.0154 0.0561,0.0322 0.0827,0.0501 0.0266,0.0179 0.0518,0.037 0.0765,0.0574 0.0247,0.0204 0.0487,0.042 0.0713,0.0646 0.0226,0.0226 0.0437,0.0461 0.0641,0.0708 0.0203,0.0247 0.0399,0.0504 0.0579,0.077 0.0179,0.0266 0.0343,0.0543 0.0496,0.0827 0.0154,0.0283 0.0298,0.0574 0.0424,0.0873 0.0126,0.0299 0.0239,0.0606 0.0336,0.092 0.01,0.0314 0.0176,0.063 0.0243,0.0956 0.007,0.0326 0.0116,0.066 0.015,0.0997 0.003,0.0337 0.005,0.0677 0.005,0.10232 v 24.04194 c 0,0.0346 -0.002,0.0686 -0.005,0.10232 -0.003,0.0337 -0.008,0.0671 -0.015,0.0997 -0.007,0.0326 -0.0146,0.0642 -0.0243,0.0956 -0.01,0.0314 -0.021,0.062 -0.0336,0.092 -0.0126,0.0299 -0.027,0.0595 -0.0424,0.0879 -0.0153,0.0283 -0.0317,0.0556 -0.0496,0.0822 -0.0179,0.0266 -0.0375,0.0523 -0.0579,0.077 -0.0203,0.0247 -0.0415,0.0482 -0.0641,0.0708 -0.0226,0.0226 -0.4284,0.2526 -0.0713,0.0646 -0.0247,0.0204 -0.0499,0.0394 -0.0765,0.0574 -0.0266,0.0179 -0.0543,0.0348 -0.0827,0.0501 -0.0283,0.0154 -0.0574,0.0292 -0.0873,0.0419 -0.0299,0.0126 -0.0606,0.0239 -0.092,0.0336 -0.006,0.002 -0.0125,0.003 -0.0186,0.005 l 3.97166,7.07968 12.22115,4.44359 12.28607,-24.50387 15.19546,-5.22862 v -9.59218 l -12.4039,-0.23151 z"
         sodipodi:nodetypes="cccsssccsscscccccccsssscssssscccscccsssscssscsccccccccccccc" />
      <rect
         style="display:inline;fill:#009aff;fill-opacity:1;stroke:#ffffff;stroke-width:0.587379;stroke-opacity:1"
         id="rect14647-43"
         width="4.3412156"
         height="21.864557"
         x="131.21559"
         y="132.39034"
         ry="1.0020685" />
    </g>
    <circle
       style="display:inline;fill:#009aff;fill-opacity:1;stroke:#ffffff;stroke-width:1;stroke-dasharray:none;stroke-opacity:1"
       id="path14413-7"
       cx="132.06328"
       cy="117.58801"
       r="4.3761163"
       inkscape:label="Eye" />
    <g
       inkscape:groupmode="layer"
       id="layer5"
       inkscape:label="Gear"
       transform="matrix(1.0292756,0,0,1.0289843,-4.6309331,-3.7441958)"
       style="display:inline">
      <path
         id="path4290"
         style="fill:#009aff;fill-opacity:1;stroke:#ffffff;stroke-width:0.971695;stroke-miterlimit:0;stroke-dasharray:none;stroke-opacity:1"
         inkscape:transform-center-x="-0.0018454355"
         inkscape:transform-center-y="-1.6826152"
         d="m 158.22042,110.37051 a 19.307416,18.812839 0 0 0 -1.44434,0.0527 l -1.18994,5.71641 a 13.652408,13.302686 0 0 0 -2.93099,0.90588 l -4.3479,-3.99551 a 19.307416,18.812839 0 0 0 -2.56646,1.79534 l 2.47554,5.28562 a 13.652408,13.302686 0 0 0 -1.82923,2.41938 l -5.9153,-0.7409 a 19.307416,18.812839 0 0 0 -1.00102,2.91971 l 5.20389,2.86468 a 13.652408,13.302686 0 0 0 -0.10715,1.5895 13.652408,13.302686 0 0 0 0.0857,1.40696 l -5.25134,2.79825 a 19.307416,18.812839 0 0 0 0.96263,2.92962 l 5.93489,-0.66224 a 13.652408,13.302686 0 0 0 1.79161,2.43926 l -2.55276,5.25658 a 19.307416,18.812839 0 0 0 2.54335,1.82706 l 4.39845,-3.93175 a 13.652408,13.302686 0 0 0 2.92118,0.94599 l 1.10647,5.72099 a 19.307416,18.812839 0 0 0 1.71243,0.082 19.307416,18.812839 0 0 0 1.44435,-0.0527 l 1.18993,-5.71639 a 13.652408,13.302686 0 0 0 2.931,-0.90627 l 4.3479,3.9959 a 19.307416,18.812839 0 0 0 2.56647,-1.79535 l -2.47593,-5.286 a 13.652408,13.302686 0 0 0 1.82921,-2.41899 l 5.9157,0.7409 a 19.307416,18.812839 0 0 0 1.00102,-2.91971 l -5.20468,-2.86545 a 13.652408,13.302686 0 0 0 0.10704,-1.58875 13.652408,13.302686 0 0 0 -0.0773,-1.41115 l 5.2427,-2.79365 a 19.307416,18.812839 0 0 0 -0.95321,-2.93079 l -5.93842,0.66261 a 13.652408,13.302686 0 0 0 -1.79512,-2.44267 l 2.55667,-5.26422 a 19.307416,18.812839 0 0 0 -2.5402,-1.82325 l -4.40317,3.93595 a 13.652408,13.302686 0 0 0 -2.92628,-0.94903 l -1.10687,-5.72099 a 19.307416,18.812839 0 0 0 -1.71086,-0.0756 z" />
      <ellipse
         style="fill:#009aff;fill-opacity:1;stroke:#ffffff;stroke-width:0.971695;stroke-miterlimit:0;stroke-dasharray:none;stroke-opacity:1"
         id="path7022"
         cx="158.2204"
         cy="129.18333"
         rx="10.603229"
         ry="10.331617" />
      <circle
         style="fill:#009aff;fill-opacity:1;stroke:#ffffff;stroke-width:0.971695;stroke-miterlimit:0;stroke-dasharray:none;stroke-opacity:1"
         id="path7024"
         cx="158.2204"
         cy="129.18333"
         r="3" />
    </g>
    <circle
       style="fill:#009aff;fill-opacity:1;stroke:#ffffff;stroke-width:0.499999;stroke-miterlimit:0;stroke-dasharray:none;stroke-opacity:1"
       id="path9267"
       cx="158.75"
       cy="162.71875"
       r="6.6104107" />
    <path
       style="fill:none;fill-opacity:1;stroke:#ffffff;stroke-width:1;stroke-miterlimit:0;stroke-dasharray:none;stroke-opacity:1"
       d="m 158.75,162.71875 11.90625,15.875 -16.32687,25.13541"
       id="path9323"
       sodipodi:nodetypes="ccc" />
    <path
       style="fill:#009aff;fill-opacity:1;stroke:#ffffff;stroke-width:1;stroke-miterlimit:0;stroke-dasharray:none;stroke-opacity:1"
       d="m 162.49282,191.16145 2.41989,12.56771 h -10.58333 -10.58334 l 15.31827,-7.28949 5.8484,7.02491"
       id="path9325"
       sodipodi:nodetypes="cccccc" />
    <circle
       style="fill:#009aff;fill-opacity:1;stroke:#ffffff;stroke-width:1;stroke-miterlimit:0;stroke-dasharray:none;stroke-opacity:1"
       id="path9327"
       cx="170.65625"
       cy="178.59375"
       r="2.6458333" />
    <path
       style="fill:none;fill-opacity:1;stroke:#ffffff;stroke-width:1;stroke-miterlimit:0;stroke-dasharray:none;stroke-opacity:1"
       d="m 158.22083,93.185288 c 1.61688,-6.506238 3.42625,-15.962693 15.66172,-17.958092"
       id="path9329"
       sodipodi:nodetypes="cc" />
    <ellipse
       style="display:inline;fill:#009aff;fill-opacity:1;stroke:#ffffff;stroke-width:1;stroke-dasharray:none;stroke-opacity:1"
       id="path16236-7"
       cx="173.88255"
       cy="75.227196"
       rx="5.2579083"
       ry="5.2579079" />
  </g>
  <use
     x="0"
     y="0"
     inkscape:tiled-clone-of="#layer1"
     xlink:href="#layer1"
     transform="matrix(-1,0,0,1,118.96941,0)"
     id="use14411"
     style="display:inline;stroke-width:1;stroke-dasharray:none;fill:#009aff;fill-opacity:1;stroke:#ffffff;stroke-opacity:1"
     inkscape:label="right_front" />
</svg>
