<?xml version="1.0" encoding="UTF-8" standalone="no"?>
<!-- Created with Inkscape (http://www.inkscape.org/) -->

<svg
   width="323mm"
   height="210mm"
   viewBox="0 0 323 210"
   version="1.1"
   id="svg5"
   sodipodi:docname="Type41.svg"
   inkscape:version="1.2.2 (732a01da63, 2022-12-09)"
   inkscape:export-filename="Type41.png"
   inkscape:export-xdpi="96"
   inkscape:export-ydpi="96"
   xml:space="preserve"
   xmlns:inkscape="http://www.inkscape.org/namespaces/inkscape"
   xmlns:sodipodi="http://sodipodi.sourceforge.net/DTD/sodipodi-0.dtd"
   xmlns:xlink="http://www.w3.org/1999/xlink"
   xmlns="http://www.w3.org/2000/svg"
   xmlns:svg="http://www.w3.org/2000/svg"><sodipodi:namedview
     id="namedview7"
     pagecolor="#6a6a6a"
     bordercolor="#000000"
     borderopacity="0.25"
     inkscape:showpageshadow="2"
     inkscape:pageopacity="0"
     inkscape:pagecheckerboard="0"
     inkscape:deskcolor="#d1d1d1"
     inkscape:document-units="mm"
     showgrid="true"
     inkscape:zoom="0.6011529"
     inkscape:cx="426.68013"
     inkscape:cy="375.94429"
     inkscape:window-width="1920"
     inkscape:window-height="1017"
     inkscape:window-x="-8"
     inkscape:window-y="-8"
     inkscape:window-maximized="1"
     inkscape:current-layer="layer22"
     showguides="false"
     inkscape:lockguides="false"><inkscape:grid
       type="xygrid"
       id="grid7980"
       empspacing="397"
       dotted="false"
       originx="0"
       originy="0" /><sodipodi:guide
       position="91.70552,198.60013"
       orientation="0,-1"
       id="guide11810"
       inkscape:locked="false" /></sodipodi:namedview><defs
     id="defs2"><inkscape:path-effect
       effect="gears"
       id="path-effect1953"
       is_visible="true"
       lpeversion="1"
       teeth="11"
       phi="11"
       min_radius="0.01" /><inkscape:path-effect
       effect="gears"
       id="path-effect1839"
       is_visible="true"
       lpeversion="1"
       teeth="8"
       phi="10"
       min_radius="10" /><inkscape:path-effect
       effect="gears"
       id="path-effect1802"
       is_visible="true"
       lpeversion="1"
       teeth="15"
       phi="5.6"
       min_radius="5" /></defs><g
     inkscape:groupmode="layer"
     id="layer10"
     inkscape:label="Front"
     transform="matrix(0.98729464,0,0,0.98729464,-25.234154,-13.051728)"><g
       inkscape:label="Right"
       inkscape:groupmode="layer"
       id="layer1"
       inkscape:tile-cx="78.846337"
       inkscape:tile-cy="80.368996"
       inkscape:tile-w="52.807322"
       inkscape:tile-h="52.299364"
       inkscape:tile-x0="52.192676"
       inkscape:tile-y0="54.219314"
       style="display:inline"><g
         inkscape:groupmode="layer"
         id="layer7"
         inkscape:label="ShoulderSlaster"
         style="display:inline"
         transform="matrix(0.9012597,0,0,1.0011007,4.4313728,-0.08062618)"><path
           id="rect7015"
           style="fill:#4c4c4c;fill-opacity:1;stroke:#000000;stroke-width:0.818275;stroke-linejoin:bevel"
           d="M 51.574644,54.719315 71.335427,55.397796 78.084284,67.951174 72.963576,91.755146 49.98972,91.775515 45.079121,68.45761 Z"
           sodipodi:nodetypes="cccccsc" /><path
           style="fill:#2f2f2f;fill-opacity:1;stroke:#000000;stroke-width:1.01287;stroke-linejoin:bevel"
           d="M 45.079121,68.45761 78.084284,67.951175"
           id="path7080"
           sodipodi:nodetypes="cc" /></g><g
         inkscape:groupmode="layer"
         id="layer2"
         inkscape:label="Hand"
         style="display:inline"
         transform="translate(-0.53739445,6.0904705)"><rect
           style="opacity:1;fill:#7b7b7b;fill-opacity:1;stroke:#000000;stroke-width:1.18227;stroke-linejoin:bevel;stroke-miterlimit:0;stroke-dasharray:none;stroke-opacity:1"
           id="rect7825"
           width="3.6101086"
           height="5.4723945"
           x="144.04929"
           y="89.995819"
           transform="matrix(0.73653732,0.67639691,-0.66663785,0.74538177,0,0)" /><rect
           style="opacity:1;fill:#7b7b7b;fill-opacity:1;stroke:#000000;stroke-width:1;stroke-linejoin:bevel;stroke-miterlimit:0;stroke-dasharray:none;stroke-opacity:1"
           id="rect7827"
           width="3.0319905"
           height="4.9323735"
           x="-112.48196"
           y="125.41254"
           transform="rotate(-55.92905)"
           ry="0" /><rect
           style="opacity:1;fill:#7b7b7b;fill-opacity:1;stroke:#000000;stroke-width:1;stroke-linejoin:bevel;stroke-miterlimit:0;stroke-dasharray:none;stroke-opacity:1"
           id="rect7829"
           width="5.1058941"
           height="14.98202"
           x="95.184906"
           y="123.25007"
           transform="rotate(22.331126)" /><rect
           style="opacity:1;fill:#7b7b7b;fill-opacity:1;stroke:#000000;stroke-width:0.98036;stroke-linejoin:bevel;stroke-miterlimit:0;stroke-dasharray:none;stroke-opacity:1"
           id="rect8557"
           width="8.7027111"
           height="5.2849646"
           x="159.39395"
           y="-10.972318"
           transform="matrix(0.24227867,0.9702067,-0.97333349,0.22939469,0,0)"
           ry="0.68128502" /><rect
           style="opacity:1;fill:#7b7b7b;fill-opacity:1;stroke:#000000;stroke-width:1;stroke-linejoin:bevel;stroke-miterlimit:0;stroke-dasharray:none;stroke-opacity:1"
           id="rect8561"
           width="7.4494834"
           height="3.3027582"
           x="133.46808"
           y="104.74276"
           transform="rotate(38.482797)"
           ry="0" /></g><g
         inkscape:groupmode="layer"
         id="layer5"
         inkscape:label="Foot"
         style="display:inline"><rect
           style="display:inline;opacity:1;fill:#7b7b7b;fill-opacity:1;stroke:#000000;stroke-width:1;stroke-linejoin:bevel;stroke-miterlimit:0;stroke-dasharray:none;stroke-opacity:1"
           id="rect9364"
           width="2.9746687"
           height="5.711216"
           x="35.839104"
           y="164.76503"
           ry="0"
           transform="rotate(-4.2979148,80.885682,10.205917)" /><rect
           style="display:inline;opacity:1;fill:#7b7b7b;fill-opacity:1;stroke:#000000;stroke-width:1;stroke-linejoin:bevel;stroke-miterlimit:0;stroke-dasharray:none;stroke-opacity:1"
           id="rect10100"
           width="3.090018"
           height="2.6645808"
           x="104.37501"
           y="138.78442"
           transform="rotate(20.746446,-16.904664,1.5773565)" /><path
           id="rect4897"
           style="display:inline;fill:#bfbfbf;fill-opacity:1;stroke:#000000;stroke-width:1.15488;stroke-linejoin:bevel;stroke-miterlimit:0"
           d="m 65.336496,154.57332 17.939737,-0.006 6.408133,9.64727 v 29.65642 H 59.70692 v -29.65654 z"
           sodipodi:nodetypes="ccccccc" /><g
           inkscape:groupmode="layer"
           id="layer6"
           inkscape:label="Gear"
           style="display:inline"><rect
             style="display:inline;opacity:1;fill:#bf9224;fill-opacity:1;stroke:#000000;stroke-width:1.13046;stroke-linejoin:bevel;stroke-miterlimit:0;stroke-dasharray:none;stroke-opacity:1"
             id="rect12007"
             width="5.8571477"
             height="18.255262"
             x="90.041557"
             y="178.1069" /><path
             style="display:inline;opacity:1;fill:#bf9224;fill-opacity:1;stroke:#000000;stroke-width:1.13046;stroke-linejoin:bevel;stroke-miterlimit:0;stroke-dasharray:none;stroke-opacity:1"
             d="M 95.898702,193.37209 H 89.684365"
             id="path12018" /><path
             style="display:inline;opacity:1;fill:#bf9224;fill-opacity:1;stroke:#000000;stroke-width:1.13046;stroke-linejoin:bevel;stroke-miterlimit:0;stroke-dasharray:none;stroke-opacity:1"
             d="M 95.898702,180.43488 H 89.684365"
             id="path12012" /><path
             style="display:inline;opacity:1;fill:#bf9224;fill-opacity:1;stroke:#000000;stroke-width:1.13046;stroke-linejoin:bevel;stroke-miterlimit:0;stroke-dasharray:none;stroke-opacity:1"
             d="M 95.898702,183.72118 H 90.041555"
             id="path12014" /><path
             style="display:inline;opacity:1;fill:#bf9224;fill-opacity:1;stroke:#000000;stroke-width:1.13046;stroke-linejoin:bevel;stroke-miterlimit:0;stroke-dasharray:none;stroke-opacity:1"
             d="M 95.898702,189.28261 H 90.041555"
             id="path12016" /></g><g
           inkscape:groupmode="layer"
           id="layer6-6"
           inkscape:label="Gear"
           style="display:inline"
           transform="translate(-28.250228,-0.03377066)"><rect
             style="display:inline;opacity:1;fill:#bf9224;fill-opacity:1;stroke:#000000;stroke-width:1.13046;stroke-linejoin:bevel;stroke-miterlimit:0;stroke-dasharray:none;stroke-opacity:1"
             id="rect12007-9"
             width="5.8571477"
             height="18.255262"
             x="82.112762"
             y="178.10698" /><path
             style="display:inline;opacity:1;fill:#bf9224;fill-opacity:1;stroke:#000000;stroke-width:1.13046;stroke-linejoin:bevel;stroke-miterlimit:0;stroke-dasharray:none;stroke-opacity:1"
             d="M 87.969905,193.37216 H 81.755568"
             id="path12018-5" /><path
             style="display:inline;opacity:1;fill:#bf9224;fill-opacity:1;stroke:#000000;stroke-width:1.13046;stroke-linejoin:bevel;stroke-miterlimit:0;stroke-dasharray:none;stroke-opacity:1"
             d="M 87.969905,180.43495 H 81.755568"
             id="path12012-6" /><path
             style="display:inline;opacity:1;fill:#bf9224;fill-opacity:1;stroke:#000000;stroke-width:1.13046;stroke-linejoin:bevel;stroke-miterlimit:0;stroke-dasharray:none;stroke-opacity:1"
             d="M 87.969905,183.72126 H 82.112757"
             id="path12014-1" /><path
             style="display:inline;opacity:1;fill:#bf9224;fill-opacity:1;stroke:#000000;stroke-width:1.13046;stroke-linejoin:bevel;stroke-miterlimit:0;stroke-dasharray:none;stroke-opacity:1"
             d="M 87.969905,189.28268 H 82.112757"
             id="path12016-7" /></g><path
           style="display:inline;fill:#464646;fill-opacity:1;stroke:#000000;stroke-width:1.13046;stroke-linejoin:bevel;stroke-miterlimit:0;stroke-opacity:1"
           d="m 80.103211,181.60021 13.717645,12.27081 v 12.88073 H 55.238975 V 193.4348 l 13.041339,-11.84797 z"
           id="path4900"
           sodipodi:nodetypes="ccccccc" /><path
           style="display:inline;fill:#bfbfbf;fill-opacity:1;stroke:#000000;stroke-width:1.13046;stroke-linejoin:bevel;stroke-miterlimit:0;stroke-opacity:1"
           d="m 65.763603,206.75175 v -12.88073 h 17.357034 v 12.88073"
           id="path5686" /><path
           style="display:inline;fill:none;fill-opacity:1;stroke:#000000;stroke-width:1.13046;stroke-linejoin:bevel;stroke-miterlimit:0;stroke-opacity:1"
           d="m 59.706918,164.21448 5.41635,-3.05501 h 18.727338 l 5.83376,3.05513"
           id="path5690"
           sodipodi:nodetypes="cccc" /><path
           style="display:inline;fill:#ffffff;fill-opacity:1;stroke:#000000;stroke-width:2;stroke-linejoin:bevel;stroke-miterlimit:0;stroke-dasharray:none;stroke-opacity:1"
           d="m 78.598177,141.51387 -4.291813,13.05645"
           id="path4895"
           sodipodi:nodetypes="cc" /></g><path
         id="rect943"
         style="fill:#464646;fill-opacity:1;stroke:#000000;stroke-linejoin:bevel;stroke-miterlimit:0"
         d="m 104.95211,113.08257 -33.869401,0.0154 -17.86108,-7.09325 V 88.651568 l 51.807321,0.01399"
         sodipodi:nodetypes="ccccc" /><path
         id="rect4750"
         style="display:inline;fill:#bfbfbf;fill-opacity:1;stroke:#000000;stroke-width:0.990817;stroke-linejoin:bevel;stroke-miterlimit:0;stroke-dasharray:none"
         d="M 105.02972,113.08832 H 71.046753 v 17.41389 h 33.982967"
         sodipodi:nodetypes="cccc" /><path
         id="rect4777"
         style="display:inline;fill:#561c1c;fill-opacity:1;stroke:#000000;stroke-width:1.00115;stroke-linejoin:bevel;stroke-miterlimit:0"
         d="M 105.03957,158.74516 H 87.776878 V 130.459 h 17.262692"
         sodipodi:nodetypes="cccc" /><path
         id="path4780"
         style="fill:#1e0000;fill-opacity:1;stroke:#000000;stroke-linejoin:bevel;stroke-miterlimit:0"
         d="m 87.776878,144.60208 c -9.178701,0 -12.921503,-5.97791 -12.921503,-14.14308 l 12.921503,0.0432 v 14.09987"
         sodipodi:nodetypes="cc" /><g
         inkscape:groupmode="layer"
         id="layer3"
         inkscape:label="Damper"
         style="display:inline"
         transform="matrix(0.88607361,0,0,0.88607361,11.965599,13.056285)"><path
           id="rect10894"
           style="display:inline;opacity:1;fill:#464646;fill-opacity:1;stroke:#000000;stroke-width:1.21333;stroke-linejoin:bevel;stroke-miterlimit:0"
           d="M 104.90838,141.56735 H 70.606399 L 52.893237,129.17552 v -12.39184 l 52.135853,0.0112"
           sodipodi:nodetypes="ccccc" /><rect
           style="display:inline;opacity:1;fill:#2f2f2f;fill-opacity:1;stroke:#000000;stroke-width:1.32637;stroke-linejoin:bevel;stroke-miterlimit:0;stroke-dasharray:none;stroke-opacity:1"
           id="rect10901"
           width="9.6859989"
           height="27.829706"
           x="70.716942"
           y="115.26601" /><path
           id="rect10960"
           style="display:inline;opacity:1;fill:#2f2f2f;fill-opacity:1;stroke:#000000;stroke-linejoin:bevel;stroke-miterlimit:0"
           d="M 104.99988,137.78055 H 84.639626 v -18.74767 h 20.389594"
           sodipodi:nodetypes="cccc" /><circle
           style="display:inline;opacity:1;fill:#ead500;fill-opacity:1;stroke:#000000;stroke-width:1.12857;stroke-linejoin:bevel;stroke-miterlimit:0;stroke-dasharray:none;stroke-opacity:1"
           id="path10958"
           cx="62.445889"
           cy="125.00877"
           r="4.2315898" /></g><g
         inkscape:groupmode="layer"
         id="layer21"
         inkscape:label="Arm 1"><path
           style="display:inline;fill:#ffffff;fill-opacity:1;stroke:#000000;stroke-width:2;stroke-linejoin:bevel;stroke-miterlimit:0;stroke-dasharray:none;stroke-opacity:1"
           d="m 49.840229,103.35091 -4.116301,13.00705"
           id="path1115"
           sodipodi:nodetypes="cc" /><path
           style="display:inline;fill:#999999;fill-opacity:1;stroke:#000000;stroke-width:1.01287;stroke-linejoin:bevel"
           d="m 28.735577,132.42073 -3.176688,-6.54878 5.811938,-1.66634 0.558931,7.29729 z"
           id="path9183" /><path
           style="display:inline;fill:#bfbfbf;fill-opacity:1;stroke:#000000;stroke-width:1.01287;stroke-linejoin:bevel"
           d="m 34.167211,130.85999 -6.638188,1.90743 5.643995,12.59461"
           id="path9178"
           sodipodi:nodetypes="ccc" /><path
           id="rect1117"
           style="display:inline;fill:#bfbfbf;fill-opacity:1;stroke:#000000;stroke-width:1;stroke-linejoin:bevel;stroke-miterlimit:0;stroke-dasharray:none"
           d="m 34.167211,116.35796 h 11.556717 11.556718 v 29.00407 l -1.940418,10.80112 H 36.629231 l -2.46202,-10.80112 z"
           sodipodi:nodetypes="cccccccc" /><path
           id="rect8760"
           style="display:inline;fill:#bfbfbf;stroke:#000000;stroke-width:1.01287;stroke-linejoin:bevel"
           d="m 30.562832,103.04919 h 3.604382 v 42.31284 l -1.988392,0 z"
           sodipodi:nodetypes="ccccc" /></g><g
         inkscape:groupmode="layer"
         id="layer8"
         inkscape:label="Gril"><circle
           style="display:inline;opacity:1;fill:#ffffff;fill-opacity:1;stroke:#000000;stroke-width:1;stroke-linejoin:bevel;stroke-miterlimit:0;stroke-dasharray:none;stroke-opacity:1"
           id="path10966"
           cx="67.460037"
           cy="99.87542"
           r="7.599905" /><circle
           style="display:inline;opacity:1;fill:#ffffff;fill-opacity:1;stroke:#000000;stroke-width:1;stroke-linejoin:bevel;stroke-miterlimit:0;stroke-dasharray:none;stroke-opacity:1"
           id="path10968"
           cx="67.460037"
           cy="99.87542"
           r="5.3739443" /><rect
           style="display:inline;opacity:1;fill:#2f2f2f;fill-opacity:1;stroke:#000000;stroke-width:1;stroke-linejoin:bevel;stroke-miterlimit:0;stroke-dasharray:none;stroke-opacity:1"
           id="rect10972"
           width="6.0087757"
           height="18.558807"
           x="78.657898"
           y="92.566193"
           rx="0.53739446"
           ry="0.53739446" /><rect
           style="display:inline;opacity:1;fill:#2f2f2f;fill-opacity:1;stroke:#000000;stroke-width:1;stroke-linejoin:bevel;stroke-miterlimit:0;stroke-dasharray:none;stroke-opacity:1"
           id="rect10974"
           width="6.0516624"
           height="18.520836"
           x="89.97541"
           y="92.540833"
           rx="0.53739446"
           ry="0.53739446" /><path
           id="rect10976"
           style="display:inline;opacity:1;fill:#2f2f2f;fill-opacity:1;stroke:#000000;stroke-width:1;stroke-linejoin:bevel;stroke-miterlimit:0;stroke-dasharray:none"
           d="m 105.07699,111.02115 h -2.63957 c -0.37272,0 -0.67277,-0.23864 -0.67277,-0.53505 V 93.1164 c 0,-0.296414 0.30005,-0.535042 0.67277,-0.535042 h 2.63957"
           sodipodi:nodetypes="cssssc" /></g><g
         inkscape:groupmode="layer"
         id="layer9"
         inkscape:label="Face"><path
           id="path234"
           style="display:inline;fill:#bfbfbf;fill-opacity:1;stroke:#000000;stroke-width:1.00085;stroke-linejoin:bevel;stroke-miterlimit:0"
           d="m 105.05795,54.719315 c -18.779997,0 -34.004193,15.198251 -34.004193,33.946243 h 33.975193"
           sodipodi:nodetypes="cc"
           inkscape:tile-cx="88.026876"
           inkscape:tile-cy="88.665555"
           inkscape:tile-w="34.446242"
           inkscape:tile-h="68.892483"
           inkscape:tile-x0="70.553755"
           inkscape:tile-y0="54.219314" /><circle
           style="display:inline;fill:#ead500;fill-opacity:1;stroke:#000000;stroke-width:1;stroke-linejoin:bevel;stroke-miterlimit:0;stroke-dasharray:none;stroke-opacity:1"
           id="path7986"
           cx="87.3125"
           cy="83.34375"
           r="3.96875" /><path
           id="path9737"
           style="display:inline;fill:#f8f200;fill-opacity:1;stroke:#000000;stroke-width:1;stroke-linejoin:bevel;stroke-miterlimit:0;stroke-dasharray:none"
           d="m 105,44.434141 c -3.34121,-2e-6 -6.049792,-2.708587 -6.049792,-6.049795 0,-3.34121 2.708582,-6.049796 6.049792,-6.049797"
           sodipodi:nodetypes="csc" /><path
           style="display:inline;fill:#ffffff;fill-opacity:1;stroke:#000000;stroke-width:1;stroke-linejoin:bevel;stroke-miterlimit:0;stroke-dasharray:none;stroke-opacity:1"
           d="M 105,54.719315 V 44.206114"
           id="path9681" /></g><rect
         style="fill:#bfbfbf;fill-opacity:1;stroke:#000000;stroke-width:1.01287;stroke-linejoin:bevel"
         id="rect8624"
         width="8.5428638"
         height="16.838737"
         x="44.678764"
         y="89.165985" /><path
         id="rect680"
         style="display:inline;fill:#999999;stroke:#000000;stroke-width:1.01287;stroke-linejoin:bevel"
         d="m 34.673649,86.206669 16.119977,-3.954263 2.428003,6.399162 -2.428003,21.202862 -20.73686,-8.97966 z"
         sodipodi:nodetypes="cccccc" /></g><use
       x="0"
       y="0"
       inkscape:tiled-clone-of="#layer1"
       xlink:href="#layer1"
       transform="matrix(-1,0,0,1,210,0)"
       id="use4775"
       style="display:inline;fill:#ffffff;fill-opacity:1"
       inkscape:label="Left" /></g><g
     inkscape:groupmode="layer"
     id="layer11"
     inkscape:label="Left"><g
       inkscape:groupmode="layer"
       id="layer12"
       inkscape:label="waist"><circle
         style="fill:#561c1c;fill-opacity:1;stroke:#000000;stroke-width:1;stroke-linecap:round;stroke-linejoin:round;stroke-miterlimit:0;stroke-dasharray:none;stroke-opacity:1"
         id="path1449"
         cx="240.15701"
         cy="115.25553"
         r="26.434782" /><circle
         style="fill:#1e0000;fill-opacity:1;stroke:#000000;stroke-width:1;stroke-linecap:round;stroke-linejoin:round;stroke-miterlimit:0;stroke-dasharray:none;stroke-opacity:1"
         id="path1452"
         cx="240.15701"
         cy="115.25553"
         r="14.116197" /><rect
         style="fill:#bfbfbf;fill-opacity:1;stroke:#000000;stroke-width:0.954121;stroke-linecap:round;stroke-linejoin:round;stroke-miterlimit:0;stroke-dasharray:none;stroke-opacity:1"
         id="rect1395"
         width="56.334015"
         height="16.085571"
         x="213.6993"
         y="99.153297" /></g><g
       inkscape:groupmode="layer"
       id="layer17"
       inkscape:label="Foot 1"
       transform="matrix(1.1945395,0,0,0.99836769,-57.325675,-0.38240124)"
       style="display:inline"><g
         inkscape:groupmode="layer"
         id="layer18"
         inkscape:label="Booster"
         transform="matrix(0.83714269,0,0,1.001635,42.900723,9.7013073)"
         style="display:inline"><path
           style="fill:#868686;fill-opacity:1;stroke:#000000;stroke-width:0.788067;stroke-linecap:round;stroke-linejoin:round;stroke-miterlimit:0;stroke-dasharray:none;stroke-opacity:1"
           d="m 266.48538,151.20337 8.19344,-1.92917 v -10.77458 l -8.90814,-2.09745"
           id="path3563" /><path
           style="fill:#7b7b7b;fill-opacity:1;stroke:#000000;stroke-width:0.894967;stroke-linecap:round;stroke-linejoin:round;stroke-miterlimit:0;stroke-dasharray:none;stroke-opacity:1"
           d="M 274.17374,139.34915 H 266.1989"
           id="path3567"
           sodipodi:nodetypes="cc" /><path
           style="fill:#7b7b7b;fill-opacity:1;stroke:#000000;stroke-width:0.894967;stroke-linecap:round;stroke-linejoin:round;stroke-miterlimit:0;stroke-dasharray:none;stroke-opacity:1"
           d="M 274.28053,143.68062 H 266.4837"
           id="path3569" /><path
           style="fill:#ffffff;fill-opacity:1;stroke:#000000;stroke-width:0.894967;stroke-linecap:round;stroke-linejoin:round;stroke-miterlimit:0;stroke-dasharray:none;stroke-opacity:1"
           d="m 274.17374,148.41817 h -8.08166"
           id="path3571"
           sodipodi:nodetypes="cc" /><path
           style="display:inline;fill:#999999;fill-opacity:1;stroke:#000000;stroke-width:1;stroke-linejoin:bevel"
           d="m 265.62163,173.48508 7.60297,0.19491 6.10675,-15.44896 -5.15002,-4.96516"
           id="path8292"
           sodipodi:nodetypes="cccc" /><path
           style="fill:#bfbfbf;fill-opacity:1;stroke:#000000;stroke-width:1;stroke-linejoin:bevel"
           d="m 266.48538,151.20337 7.69595,2.0625 -7.66819,18.24139"
           id="path8290"
           sodipodi:nodetypes="ccc" /><path
           style="fill:#999999;fill-opacity:1;stroke:#000000;stroke-width:1;stroke-linejoin:bevel"
           d="m 279.33134,158.23103 -6.47658,-1.7354"
           id="path8295" /><path
           style="fill:#999999;fill-opacity:1;stroke:#000000;stroke-width:1;stroke-linejoin:bevel"
           d="m 270.34724,161.21072 6.78078,2.59435"
           id="path8297" /><path
           style="fill:#999999;fill-opacity:1;stroke:#000000;stroke-width:1;stroke-linejoin:bevel"
           d="m 268.37556,167.07686 6.54277,2.31832"
           id="path8299" /><path
           style="fill:#999999;fill-opacity:1;stroke:#000000;stroke-width:1;stroke-linejoin:bevel"
           d="m 273.2246,173.67999 -6.71146,-2.77877"
           id="path8301" /></g><path
         style="fill:#ffffff;fill-opacity:1;stroke:#000000;stroke-width:2.28811;stroke-linecap:round;stroke-linejoin:round;stroke-miterlimit:0;stroke-dasharray:none;stroke-opacity:1"
         d="m 249.03546,125.39095 7.31801,15.65231"
         id="path1971"
         sodipodi:nodetypes="cc" /><path
         id="rect1987"
         style="fill:#bfbfbf;fill-opacity:1;stroke:#000000;stroke-linecap:round;stroke-linejoin:round;stroke-miterlimit:0"
         d="m 247.28434,140.39955 h 18.72591 V 181.489 l -3.81732,10.13264 -24.72438,0.0113 2.50784,-40.29983 z"
         sodipodi:nodetypes="ccccccc" /><path
         style="fill:#464646;fill-opacity:1;stroke:#000000;stroke-width:1;stroke-linecap:round;stroke-linejoin:round;stroke-miterlimit:0;stroke-dasharray:none;stroke-opacity:1"
         d="m 239.09944,166.16294 -9.36998,3.51747 -7.43396,10.34725 v 11.65332 l 22.77298,-0.0511 z"
         id="path1990"
         sodipodi:nodetypes="cccccc" /><path
         style="fill:none;fill-opacity:1;stroke:#000000;stroke-width:1;stroke-linecap:round;stroke-linejoin:round;stroke-miterlimit:0;stroke-dasharray:none;stroke-opacity:1"
         d="m 222.2955,180.02766 19.6385,0.9097"
         id="path2718"
         sodipodi:nodetypes="cc" /><path
         style="display:inline;fill:none;fill-opacity:1;stroke:#000000;stroke-width:1.01287;stroke-linecap:round;stroke-linejoin:round;stroke-miterlimit:0;stroke-dasharray:none;stroke-opacity:1"
         d="m 270.03732,166.50971 -4.21002,29.93627"
         id="path2780"
         transform="matrix(0.82650648,0,0,0.98890885,22.226012,-13.329812)"
         sodipodi:nodetypes="cc" /><path
         style="fill:none;fill-opacity:1;stroke:#000000;stroke-width:1;stroke-linecap:round;stroke-linejoin:round;stroke-miterlimit:0;stroke-dasharray:none;stroke-opacity:1"
         d="m 245.41361,151.33311 h 20.59664"
         id="path2774"
         sodipodi:nodetypes="cc" /><path
         style="fill:none;fill-opacity:1;stroke:#000000;stroke-width:1;stroke-linecap:round;stroke-linejoin:round;stroke-miterlimit:0;stroke-dasharray:none;stroke-opacity:1"
         d="m 243.63036,145.86633 1.78325,5.46678"
         id="path2776" /><g
         id="g3350"
         transform="matrix(0.83714268,0,0,1.001635,115.00658,44.57014)" /><g
         inkscape:label="Layer 1"
         id="layer1-1"
         transform="matrix(0.12112926,0,0,0.14493053,242.50667,156.66315)"
         style="display:inline"><rect
           style="fill:#bf9224;fill-opacity:1;stroke:#000000;stroke-width:2.17518;stroke-miterlimit:0;stroke-dasharray:none;stroke-opacity:1"
           id="rect10953-0"
           width="44.372288"
           height="12.824824"
           x="30.087389"
           y="135.45955" /><rect
           style="fill:#bf9224;fill-opacity:1;stroke:#000000;stroke-width:2.17517;stroke-miterlimit:0;stroke-dasharray:none;stroke-opacity:1"
           id="rect10953-1-95"
           width="44.371834"
           height="12.824834"
           x="134.41536"
           y="135.45953" /><rect
           style="fill:#bf9224;fill-opacity:1;stroke:#000000;stroke-width:2.17518;stroke-miterlimit:0;stroke-dasharray:none;stroke-opacity:1"
           id="rect10953-8-4"
           width="44.372288"
           height="12.824824"
           x="66.601273"
           y="-111.41222"
           transform="rotate(90)" /><rect
           style="fill:#bf9224;fill-opacity:1;stroke:#000000;stroke-width:2.17518;stroke-miterlimit:0;stroke-dasharray:none;stroke-opacity:1"
           id="rect10953-1-9-3"
           width="44.372288"
           height="12.824824"
           x="170.97903"
           y="-111.41241"
           transform="rotate(90)" /><path
           id="path2009-4"
           style="fill:#bf9224;fill-opacity:1;stroke:#000000;stroke-width:2;stroke-miterlimit:0;stroke-dasharray:none;stroke-opacity:1"
           inkscape:transform-center-x="1.3228346e-06"
           inkscape:transform-center-y="-1.7873655e-06"
           d="m 104.99979,46.244722 a 95.627258,95.627258 0 0 0 -12.530499,0.874366 l -2.39727,11.616345 A 84.521317,84.521317 0 0 0 76.35968,62.409627 L 68.475407,53.548153 A 95.627258,95.627258 0 0 0 46.771305,66.078654 l 3.732072,11.259261 a 84.521317,84.521317 0 0 0 -10.03763,10.03763 L 29.206486,83.643473 A 95.627258,95.627258 0 0 0 16.675985,105.34757 l 8.861474,7.88428 a 84.521317,84.521317 0 0 0 -3.674194,13.71234 l -11.616345,2.39727 a 95.627258,95.627258 0 0 0 -0.8743655,12.5305 95.627258,95.627258 0 0 0 0.8743655,12.53102 l 11.616862,2.39727 a 84.521317,84.521317 0 0 0 3.673677,13.71234 l -8.861474,7.88427 a 95.627258,95.627258 0 0 0 12.530501,21.7041 l 11.259778,-3.73258 a 84.521317,84.521317 0 0 0 10.03763,10.03763 l -3.732589,11.25926 a 95.627258,95.627258 0 0 0 21.704102,12.53101 l 7.88479,-8.86199 a 84.521317,84.521317 0 0 0 13.711824,3.6742 l 2.39727,11.61686 a 95.627258,95.627258 0 0 0 12.530499,0.87385 95.627258,95.627258 0 0 0 12.53102,-0.87385 l 2.39727,-11.61738 a 84.521317,84.521317 0 0 0 13.71182,-3.67368 l 7.88479,8.86199 a 95.627258,95.627258 0 0 0 21.70411,-12.53101 l -3.73259,-11.25978 a 84.521317,84.521317 0 0 0 10.03711,-10.03711 l 11.25978,3.73258 a 95.627258,95.627258 0 0 0 12.53102,-21.7041 l -8.86199,-7.88479 a 84.521317,84.521317 0 0 0 3.67367,-13.71182 l 11.61738,-2.39727 a 95.627258,95.627258 0 0 0 0.87385,-12.53102 95.627258,95.627258 0 0 0 -0.82579,-12.52068 l -11.60963,-2.39572 a 84.521317,84.521317 0 0 0 -3.69021,-13.75782 l 8.85734,-7.88065 A 95.627258,95.627258 0 0 0 180.83496,83.630037 l -11.24893,3.728972 a 84.521317,84.521317 0 0 0 -10.07225,-10.07277 l 3.72845,-11.248926 A 95.627258,95.627258 0 0 0 141.55518,53.513529 l -7.88065,8.857341 a 84.521317,84.521317 0 0 0 -13.75782,-3.690731 l -2.39572,-11.60911 a 95.627258,95.627258 0 0 0 -12.5212,-0.826307 z m 0,30.627072 a 65,65 0 0 1 65.00017,65.000166 65,65 0 0 1 -65.00017,65.00017 65,65 0 0 1 -65.000164,-65.00017 65,65 0 0 1 65.000164,-65.000166 z" /><circle
           style="fill:none;fill-opacity:1;stroke:#000000;stroke-width:2;stroke-miterlimit:0;stroke-dasharray:none;stroke-opacity:1"
           id="path2039-5"
           cx="104.9998"
           cy="141.87195"
           r="75" /><path
           id="path2043-4"
           style="fill:#bf9224;fill-opacity:1;stroke:#000000;stroke-width:2;stroke-miterlimit:0;stroke-dasharray:none;stroke-opacity:1"
           d="m 104.99979,89.734592 c -28.794722,-1.16e-4 -52.137487,23.342648 -52.137371,52.137368 -1.24e-4,28.79473 23.342642,52.13749 52.137371,52.13738 28.79473,1.3e-4 52.13751,-23.34265 52.13738,-52.13738 1.1e-4,-28.79474 -23.34265,-52.137501 -52.13738,-52.137368 z m 0,26.726148 c 14.03427,-8e-5 25.4113,11.37696 25.41123,25.41122 7e-5,14.03425 -11.37696,25.4113 -25.41123,25.41121 -14.03426,9e-5 -25.411294,-11.37696 -25.411222,-25.41121 -7.2e-5,-14.03426 11.376962,-25.4113 25.411222,-25.41122 z"
           sodipodi:nodetypes="cccccccccc" /></g></g><g
       inkscape:groupmode="layer"
       id="layer13"
       inkscape:label="face"><path
         id="path1458"
         style="fill:#bfbfbf;fill-opacity:1;stroke:#000000;stroke-width:1;stroke-linecap:round;stroke-linejoin:round;stroke-miterlimit:0;stroke-dasharray:none"
         d="m 209.21845,74.94076 c 0,-17.244968 13.85167,-31.224776 30.93856,-31.224774 17.08689,-2e-6 30.93856,13.979806 30.93856,31.224774"
         sodipodi:nodetypes="csc"
         inkscape:label="path1458" /><ellipse
         style="display:inline;fill:#ead500;fill-opacity:1;stroke:#000000;stroke-width:0.897016;stroke-linejoin:bevel;stroke-miterlimit:0;stroke-dasharray:none;stroke-opacity:1"
         id="path7986-4"
         cx="217.84135"
         cy="69.233109"
         rx="3.1976635"
         ry="3.963465" /><path
         style="fill:none;fill-opacity:1;stroke:#000000;stroke-width:1;stroke-linecap:round;stroke-linejoin:round;stroke-miterlimit:0;stroke-dasharray:none;stroke-opacity:1"
         d="m 240.15701,43.715984 c 1.48452,-8.780857 4.27526,-14.73552 14.18648,-15.089675"
         id="path4273"
         sodipodi:nodetypes="cc" /><circle
         style="display:inline;fill:#f8f200;fill-opacity:1;stroke:#000000;stroke-width:1.01287;stroke-linecap:round;stroke-linejoin:round;stroke-miterlimit:0;stroke-dasharray:none;stroke-opacity:1"
         id="path4277"
         cx="283.17548"
         cy="42.214386"
         r="5.1944671"
         transform="matrix(0.98729464,0,0,0.98729464,-25.234154,-13.051728)" /></g><g
       inkscape:groupmode="layer"
       id="layer19"
       inkscape:label="Bamper"
       transform="matrix(1.2381575,0,0,0.99566335,-46.020299,0.34481574)"><rect
         style="fill:#2f2f2f;fill-opacity:1;stroke:#000000;stroke-width:0.90065;stroke-linecap:round;stroke-linejoin:round;stroke-miterlimit:0;stroke-dasharray:none;stroke-opacity:1"
         id="rect3821"
         width="12.54731"
         height="31.124725"
         x="197.29308"
         y="96.304863"
         transform="translate(1.0263907e-6)" /><rect
         style="fill:#464646;fill-opacity:1;stroke:#000000;stroke-width:1;stroke-linecap:round;stroke-linejoin:round;stroke-miterlimit:0;stroke-dasharray:none;stroke-opacity:1"
         id="rect3806"
         width="9.3148346"
         height="25.436672"
         x="200.44814"
         y="99.238846" /><path
         style="fill:#ffffff;fill-opacity:1;stroke:#000000;stroke-width:1;stroke-linecap:round;stroke-linejoin:round;stroke-miterlimit:0;stroke-dasharray:none;stroke-opacity:1"
         d="m 200.44813,111.95718 h 9.31484"
         id="path3819" /><rect
         style="display:inline;fill:#464646;fill-opacity:1;stroke:#000000;stroke-width:0.900649;stroke-linecap:round;stroke-linejoin:round;stroke-miterlimit:0"
         id="rect6636"
         width="3.2561309"
         height="22.57206"
         x="195.23541"
         y="76.432076" /></g><g
       inkscape:groupmode="layer"
       id="layer4"
       inkscape:label="Slaster"
       style="display:inline"><path
         style="display:inline;fill:#999999;fill-opacity:1;stroke:#000000;stroke-width:0.998388;stroke-linejoin:bevel"
         d="m 296.74543,105.3101 11.58157,7.23167 5.30765,-13.844888 -12.15151,-2.605015"
         id="path4679"
         sodipodi:nodetypes="cccc"
         inkscape:transform-center-x="6.4026011"
         inkscape:transform-center-y="-2.6897012" /><ellipse
         style="display:inline;fill:#2f2f2f;fill-opacity:1;stroke:#000000;stroke-width:1;stroke-linejoin:bevel"
         id="path5608"
         cx="292.77118"
         cy="97.212715"
         rx="9.4538889"
         ry="9.2011728" /><path
         id="rect4675"
         style="display:inline;fill:#4c4c4c;stroke:#000000;stroke-width:1.43422;stroke-linejoin:bevel"
         d="m 270.54459,81.718744 20.85046,-1.527342 10.80446,9.092163 -15.70188,16.913225 -16.46432,-0.0965 z"
         sodipodi:nodetypes="cccccc" /></g><g
       inkscape:groupmode="layer"
       id="layer16"
       inkscape:label="Chest"
       transform="matrix(1.0269324,0,0,0.999481,-7.7635567,0.04538978)"
       style="display:inline"><rect
         style="display:inline;fill:#5f5f5f;fill-opacity:1;stroke:#000000;stroke-width:1.0002;stroke-linecap:round;stroke-linejoin:round;stroke-miterlimit:0;stroke-dasharray:none;stroke-opacity:1"
         id="rect1131"
         width="86.082962"
         height="24.49622"
         x="201.95338"
         y="75.434525"
         ry="0" /><path
         style="display:inline;fill:#ffffff;fill-opacity:1;stroke:#000000;stroke-width:0.955118;stroke-linecap:round;stroke-linejoin:round;stroke-miterlimit:0;stroke-dasharray:none;stroke-opacity:1"
         d="m 198.12975,92.610979 h 89.92769"
         id="path1630"
         sodipodi:nodetypes="cc" /></g><path
       style="display:inline;fill:none;fill-opacity:1;stroke:#000000;stroke-width:2;stroke-linecap:round;stroke-linejoin:round;stroke-miterlimit:0;stroke-dasharray:none;stroke-opacity:1"
       d="m 277.1116,89.387514 6.27234,12.746386"
       id="path1642"
       sodipodi:nodetypes="cc" /><g
       inkscape:groupmode="layer"
       id="layer20"
       inkscape:label="ShoulderSlaster"
       style="display:inline"><path
         style="display:inline;fill:#999999;fill-opacity:1;stroke:#000000;stroke-width:0.987057;stroke-linejoin:bevel"
         d="m 296.84859,78.224025 9.62336,-3.724976 0.99336,-19.900649 -8.57023,-4.688864"
         id="path4379"
         sodipodi:nodetypes="cccc"
         transform="matrix(1.0269324,0,0,0.999481,-7.7635568,0.04538978)" /><path
         style="display:inline;fill:#4c4c4c;stroke:#000000;stroke-width:1.08314;stroke-linejoin:bevel"
         d="m 264.03604,57.72983 14.85671,-14.513844 20.43127,4.793768 -2.39958,32.312314 -12.94084,3.462127 -12.88802,-8.843435 z"
         id="path667"
         sodipodi:nodetypes="ccccccc" /><ellipse
         style="display:inline;fill:#999999;fill-opacity:1;stroke:#000000;stroke-width:1.37784;stroke-linejoin:bevel"
         id="path1412"
         cx="274.35428"
         cy="83.784195"
         ry="9.4400291"
         rx="9.6293201" /><path
         style="display:inline;fill:#2f2f2f;fill-opacity:1;stroke:#000000;stroke-width:1.01287;stroke-linejoin:bevel"
         d="m 292.99277,71.692435 35.7421,-9.845161"
         id="path7075"
         transform="matrix(0.98729464,0,0,0.98729464,-25.234154,-13.051728)" /></g><g
       inkscape:groupmode="layer"
       id="layer14"
       inkscape:label="Arm"
       style="display:inline"><path
         id="rect1645"
         style="fill:#bfbfbf;fill-opacity:1;stroke:#000000;stroke-linecap:round;stroke-linejoin:round;stroke-miterlimit:0"
         d="m 272.62384,97.179926 22.66664,6.073504 -7.41877,27.68721 -5.56498,9.26798 -16.91623,-4.53269 -0.18543,-10.8088 z"
         sodipodi:nodetypes="ccccccc" /><g
         inkscape:groupmode="layer"
         id="layer15"
         inkscape:label="Hand 1"
         transform="rotate(57.286255,221.7891,238.64054)"><rect
           style="fill:#7b7b7b;fill-opacity:1;stroke:#000000;stroke-width:1;stroke-linecap:round;stroke-linejoin:round;stroke-miterlimit:0;stroke-dasharray:none;stroke-opacity:1"
           id="rect1893"
           width="5.4782648"
           height="2.8499646"
           x="179.28384"
           y="-119.35783"
           transform="rotate(78.028125)" /><rect
           style="fill:#7b7b7b;fill-opacity:1;stroke:#000000;stroke-width:0.86613;stroke-linecap:round;stroke-linejoin:round;stroke-miterlimit:0;stroke-dasharray:none;stroke-opacity:1"
           id="rect1893-3"
           width="4.7532058"
           height="2.4641185"
           x="218.78253"
           y="21.612486"
           transform="matrix(0.77100045,0.6368346,-0.65247449,0.75781069,0,0)" /><rect
           style="fill:#7b7b7b;fill-opacity:1;stroke:#000000;stroke-width:0.923602;stroke-linecap:round;stroke-linejoin:round;stroke-miterlimit:0;stroke-dasharray:none;stroke-opacity:1"
           id="rect1889"
           width="4.5128403"
           height="8.8643503"
           x="210.89772"
           y="14.513309"
           transform="rotate(38.222626)" /><path
           id="rect1756"
           style="fill:#7b7b7b;fill-opacity:1;stroke:#000000;stroke-linecap:round;stroke-linejoin:round;stroke-miterlimit:0"
           d="m 158.53089,141.51387 h 11.71449 l 1.89998,13.614 h -15.51445 z"
           sodipodi:nodetypes="ccccc" /><path
           id="rect1837"
           style="fill:#7b7b7b;fill-opacity:1;stroke:#000000;stroke-linecap:round;stroke-linejoin:round;stroke-miterlimit:0"
           d="m 156.63091,162.38466 h 3.82049 l -0.5,2.52827 h -2.82049 z"
           sodipodi:nodetypes="ccccc" /><path
           id="rect1837-6"
           style="fill:#7b7b7b;fill-opacity:1;stroke:#000000;stroke-linecap:round;stroke-linejoin:round;stroke-miterlimit:0"
           d="m 160.5718,162.38466 h 3.82049 l -0.5,2.52827 h -2.82049 z"
           sodipodi:nodetypes="ccccc" /><path
           id="rect1837-69"
           style="fill:#7b7b7b;fill-opacity:1;stroke:#000000;stroke-linecap:round;stroke-linejoin:round;stroke-miterlimit:0"
           d="m 164.51269,162.38466 h 3.82049 l -0.5,2.52827 h -2.82049 z"
           sodipodi:nodetypes="ccccc" /><path
           id="rect1837-0"
           style="fill:#7b7b7b;fill-opacity:1;stroke:#000000;stroke-linecap:round;stroke-linejoin:round;stroke-miterlimit:0"
           d="m 168.33318,162.38466 h 3.82049 l -0.5,2.52827 h -2.82049 z"
           sodipodi:nodetypes="ccccc" /><rect
           style="fill:#7b7b7b;fill-opacity:1;stroke:#000000;stroke-width:1;stroke-linecap:round;stroke-linejoin:round;stroke-miterlimit:0;stroke-dasharray:none;stroke-opacity:1"
           id="rect1759"
           width="15.522769"
           height="7.2567902"
           x="156.63091"
           y="155.12787" /><path
           style="fill:#7b7b7b;fill-opacity:1;stroke:#000000;stroke-width:1;stroke-linecap:round;stroke-linejoin:round;stroke-miterlimit:0;stroke-dasharray:none;stroke-opacity:1"
           d="m 160.4514,162.38466 v -7.25679"
           id="path1761" /><path
           style="fill:#7b7b7b;fill-opacity:1;stroke:#000000;stroke-width:1;stroke-linecap:round;stroke-linejoin:round;stroke-miterlimit:0;stroke-dasharray:none;stroke-opacity:1"
           d="m 164.39229,155.37787 v 6.75679"
           id="path1763" /><path
           style="fill:#7b7b7b;fill-opacity:1;stroke:#000000;stroke-width:1;stroke-linecap:round;stroke-linejoin:round;stroke-miterlimit:0;stroke-dasharray:none;stroke-opacity:1"
           d="m 168.33318,155.12787 v 7.25679"
           id="path1765" /></g><path
         id="rect9307"
         style="fill:#bfbfbf;stroke:#000000;stroke-width:0.936322;stroke-linejoin:bevel"
         d="m 283.42937,89.459663 7.0615,1.91924 -4.01787,25.156357 -4.16654,15.33003 -12.31233,-3.34636 4.16653,-15.33003 z"
         sodipodi:nodetypes="ccccccc" /><rect
         style="fill:#bfbfbf;fill-opacity:1;stroke:#000000;stroke-width:1;stroke-linejoin:bevel"
         id="rect9379"
         width="8.5973215"
         height="10.132085"
         x="296.31073"
         y="40.838314"
         transform="rotate(15.205084)" /><path
         style="fill:#999999;fill-opacity:1;stroke:#000000;stroke-width:1;stroke-linejoin:bevel"
         d="m 276.6103,117.49951 0.22973,-8.21728 9.03599,2.45588 -4.20465,7.22284 z"
         id="path9381" /></g><g
       inkscape:groupmode="layer"
       id="layer22"
       inkscape:label="shoulderCover"
       transform="matrix(1.2162697,-0.23299805,0.25013875,1.1645584,-82.158049,51.88233)"><path
         id="rect779"
         style="fill:#999999;stroke:#000000;stroke-linejoin:bevel"
         d="m 268.13703,67.727912 -3.16842,5.110304 -1.14375,20.018131 4.01077,0.01311 0.771,-16.161736 h 15.61403 l -0.001,16.322897 3.03515,-0.447897 V 72.838216 l -3.16842,-5.110304 z"
         sodipodi:nodetypes="ccccccccccc" /><path
         style="display:inline;fill:#999999;stroke:#000000;stroke-width:1;stroke-linejoin:bevel"
         d="m 264.96861,72.838216 h 22.28596"
         id="path1067" /></g></g></svg>
