<?xml version="1.0" encoding="UTF-8" standalone="no"?>
<!-- Created with Inkscape (http://www.inkscape.org/) -->

<svg
   width="210mm"
   height="297mm"
   viewBox="0 0 210 297"
   version="1.1"
   id="svg13500"
   xml:space="preserve"
   inkscape:version="1.2.2 (732a01da63, 2022-12-09)"
   sodipodi:docname="asword.svg"
   inkscape:export-filename="asword.png"
   inkscape:export-xdpi="96"
   inkscape:export-ydpi="96"
   xmlns:inkscape="http://www.inkscape.org/namespaces/inkscape"
   xmlns:sodipodi="http://sodipodi.sourceforge.net/DTD/sodipodi-0.dtd"
   xmlns:xlink="http://www.w3.org/1999/xlink"
   xmlns="http://www.w3.org/2000/svg"
   xmlns:svg="http://www.w3.org/2000/svg"><sodipodi:namedview
     id="namedview13502"
     pagecolor="#ffffff"
     bordercolor="#000000"
     borderopacity="0.25"
     inkscape:showpageshadow="2"
     inkscape:pageopacity="0.0"
     inkscape:pagecheckerboard="0"
     inkscape:deskcolor="#d1d1d1"
     inkscape:document-units="mm"
     showgrid="false"
     inkscape:zoom="0.52221045"
     inkscape:cx="266.17621"
     inkscape:cy="620.43952"
     inkscape:window-width="1920"
     inkscape:window-height="1009"
     inkscape:window-x="-8"
     inkscape:window-y="-8"
     inkscape:window-maximized="1"
     inkscape:current-layer="layer1-3"
     showguides="false"><inkscape:grid
       type="xygrid"
       id="grid13673" /></sodipodi:namedview><defs
     id="defs13497"><inkscape:path-effect
       effect="gears"
       id="path-effect1953"
       is_visible="true"
       lpeversion="1"
       teeth="11"
       phi="11"
       min_radius="0.01" /><inkscape:path-effect
       effect="gears"
       id="path-effect1839"
       is_visible="true"
       lpeversion="1"
       teeth="8"
       phi="10"
       min_radius="10" /><inkscape:path-effect
       effect="gears"
       id="path-effect1802"
       is_visible="true"
       lpeversion="1"
       teeth="15"
       phi="5.6"
       min_radius="5" /></defs><g
     inkscape:label="Layer 1"
     inkscape:groupmode="layer"
     id="layer1"
     inkscape:tile-cx="102.52603"
     inkscape:tile-cy="220.92708"
     inkscape:tile-w="29.781245"
     inkscape:tile-h="105.18751"
     inkscape:tile-x0="87.635412"
     inkscape:tile-y0="168.33333"
     style="display:inline"
     transform="translate(-0.41275,0.40678333)"><path
       id="use16606"
       style="fill:#878787;stroke:#000000;stroke-width:0.992601;stroke-miterlimit:0"
       d="m 103.60025,274.75988 h -5.291667 v -44.31554 h 5.291667"
       sodipodi:nodetypes="cccc"
       inkscape:tile-x0="94.249998"
       inkscape:tile-y0="168.33333" /><path
       id="rect17699"
       style="fill:#b7b7b7;fill-opacity:1;stroke:#000000;stroke-width:1;stroke-linejoin:bevel;stroke-miterlimit:0;stroke-dasharray:none"
       d="m 103.60025,285.36504 h -4.224363 c -3.448554,-0.0218 -4.242304,-1.87391 -4.224363,-3.64348 v -3.64347 -3.64348 -3.64348 h 8.448726"
       sodipodi:nodetypes="ccccccc" /><path
       style="display:inline;fill:#c7c7c7;fill-opacity:1;stroke:#000000;stroke-width:1;stroke-miterlimit:0;stroke-dasharray:none"
       d="M 103.60025,201.99947 V 6.2077967 l -9.789587,15.8749993 1.852087,160.072924 1.322917,5.29167 v 7.27604 l -1.164355,7.27604"
       id="path20599"
       sodipodi:nodetypes="ccccccc" /></g><use
     x="0"
     y="0"
     inkscape:tiled-clone-of="#layer1"
     xlink:href="#layer1"
     transform="matrix(-1,0,0,1,206.38397,3.3366665e-6)"
     id="use20594"
     style="display:inline" /><g
     inkscape:label="Layer 1"
     id="layer1-3"
     transform="matrix(0.20606196,0,0,0.20606236,81.619662,187.01547)"
     style="display:inline;stroke-width:4.8529;stroke-dasharray:none"><rect
       style="display:inline;fill:#bf9224;fill-opacity:1;stroke:#000000;stroke-width:5.44343;stroke-miterlimit:0;stroke-dasharray:none;stroke-opacity:1"
       id="rect10953"
       width="57.166229"
       height="23.673969"
       x="30.117235"
       y="131.60806" /><rect
       style="display:inline;fill:#bf9224;fill-opacity:1;stroke:#000000;stroke-width:5.34448;stroke-miterlimit:0;stroke-dasharray:none;stroke-opacity:1"
       id="rect10953-1"
       width="54.522774"
       height="23.772923"
       x="121.89773"
       y="130.6187" /><rect
       style="display:inline;fill:#bf9224;fill-opacity:1;stroke:#000000;stroke-width:5.23976;stroke-miterlimit:0;stroke-dasharray:none;stroke-opacity:1"
       id="rect10953-8"
       width="52.580235"
       height="23.877697"
       x="73.686234"
       y="-116.60561"
       transform="rotate(90)" /><rect
       style="display:inline;fill:#bf9224;fill-opacity:1;stroke:#000000;stroke-width:5.52753;stroke-miterlimit:0;stroke-dasharray:none;stroke-opacity:1"
       id="rect10953-1-9"
       width="57.916817"
       height="23.795628"
       x="159.82762"
       y="-116.56458"
       transform="rotate(90)" /><circle
       style="display:none;fill:none;fill-opacity:1;stroke:#000000;stroke-width:4.8529;stroke-miterlimit:0;stroke-dasharray:none;stroke-opacity:1"
       id="path2039"
       cx="104.9998"
       cy="141.87195"
       transform="translate(-3.3283679e-6)"
       r="75" /><path
       id="path3247"
       style="fill:#bf9224;stroke:#000000;stroke-width:5.18894;stroke-linejoin:bevel;stroke-miterlimit:0"
       d="m 167.27875,143.44504 a 61.667375,61.0584 0 0 1 -61.66739,61.0584 61.667375,61.0584 0 0 1 -61.667381,-61.0584 61.667375,61.0584 0 0 1 61.667381,-61.058405 61.667375,61.0584 0 0 1 61.66739,61.058405 z M 104.66674,40.762286 c -4.50401,0.01757 -9.001974,0.328345 -13.464793,0.930284 l -2.576015,12.359244 c -5.013617,0.891629 -9.942581,2.199297 -14.734762,3.909169 L 65.41902,48.532791 C 57.087864,51.94449 49.246407,56.426928 42.096614,61.864656 l 4.010342,11.979322 c -3.89144,3.25409 -7.49952,6.826542 -10.786057,10.679567 L 23.222123,80.552795 C 17.730175,87.631999 13.203035,95.396036 9.7573206,103.64495 l 9.5222024,8.38849 c -1.726919,4.74489 -3.047632,9.62516 -3.948146,14.58929 l -12.4824811,2.55059 c -0.6079443,4.41876 -0.9218131,8.87231 -0.9395649,13.33186 0.01773,4.45972 0.3315989,8.91345 0.9395649,13.33241 l 12.4830391,2.55058 c 0.900332,4.9641 2.220852,9.84439 3.947588,14.58927 l -9.5222024,8.3885 c 3.4457144,8.24892 7.9728544,16.01295 13.4648024,23.09215 l 12.099334,-3.9713 c 3.286539,3.85304 6.894619,7.42547 10.786058,10.67957 l -4.010901,11.97933 c 7.149761,5.43791 14.991228,9.92054 23.322406,13.33239 l 8.472698,-9.42875 c 4.792,1.70986 9.720789,3.01752 14.734214,3.90919 l 2.576015,12.35978 c 4.462841,0.60176 8.960793,0.91235 13.464793,0.92976 4.50419,-0.0174 9.00234,-0.32797 13.46537,-0.92976 l 2.57602,-12.36034 c 5.01341,-0.89149 9.94217,-2.19897 14.7342,-3.90863 l 8.4727,9.42875 c 8.3312,-3.41185 16.17263,-7.89448 23.32242,-13.33239 l -4.0109,-11.97989 c 3.89123,-3.25393 7.4991,-6.82621 10.78551,-10.67901 l 12.0993,3.9713 c 5.49217,-7.07917 10.01948,-14.84321 13.46538,-23.09215 l -9.52275,-8.38903 c 1.72669,-4.74473 3.04721,-9.62485 3.94757,-14.58874 l 12.4836,-2.55058 c 0.60779,-4.41897 0.92147,-8.87272 0.93901,-13.33241 -9.1e-4,-4.45493 -0.29734,-8.90499 -0.88737,-13.32143 l -12.47526,-2.54892 c -0.90344,-4.98101 -2.22994,-9.87761 -3.96537,-14.63768 l 9.51777,-8.38463 C 196.16905,95.370322 191.6444,87.612474 186.15637,80.538499 l -12.08769,3.967451 c -3.29675,-3.867502 -6.91735,-7.452547 -10.82327,-10.716953 l 4.00646,-11.968327 c -7.14451,-5.43385 -14.97969,-9.913829 -23.30409,-13.324716 l -8.46824,9.423794 c -4.80749,-1.718466 -9.75294,-3.032053 -14.78362,-3.926764 l -2.57436,-12.351546 c -4.46066,-0.584407 -8.95529,-0.878089 -13.45482,-0.879152 z" /><ellipse
       style="fill:#bf9224;fill-opacity:1;stroke:#000000;stroke-width:4.85290458;stroke-linejoin:bevel;stroke-miterlimit:0;stroke-dasharray:none"
       id="path3263"
       cx="104.66675"
       cy="142.50511"
       rx="30.336203"
       ry="30.336143" /><ellipse
       style="fill:#ff0000;fill-opacity:1;stroke:#000000;stroke-width:4.85291;stroke-linejoin:bevel;stroke-miterlimit:0;stroke-dasharray:none"
       id="path3267"
       cx="104.66675"
       cy="142.50511"
       rx="21.450935"
       ry="21.450893" /></g></svg>
