<?xml version="1.0" encoding="UTF-8" standalone="no"?>
<!-- Created with Inkscape (http://www.inkscape.org/) -->

<svg
   width="210mm"
   height="297mm"
   viewBox="0 0 210 297"
   version="1.1"
   id="svg13500"
   xml:space="preserve"
   inkscape:version="1.2.2 (732a01da63, 2022-12-09)"
   sodipodi:docname="asword.svg"
   xmlns:inkscape="http://www.inkscape.org/namespaces/inkscape"
   xmlns:sodipodi="http://sodipodi.sourceforge.net/DTD/sodipodi-0.dtd"
   xmlns:xlink="http://www.w3.org/1999/xlink"
   xmlns="http://www.w3.org/2000/svg"
   xmlns:svg="http://www.w3.org/2000/svg"><sodipodi:namedview
     id="namedview13502"
     pagecolor="#ffffff"
     bordercolor="#000000"
     borderopacity="0.25"
     inkscape:showpageshadow="2"
     inkscape:pageopacity="0.0"
     inkscape:pagecheckerboard="0"
     inkscape:deskcolor="#d1d1d1"
     inkscape:document-units="mm"
     showgrid="true"
     inkscape:zoom="0.52221046"
     inkscape:cx="-49.788355"
     inkscape:cy="651.07849"
     inkscape:window-width="1920"
     inkscape:window-height="1009"
     inkscape:window-x="-8"
     inkscape:window-y="-8"
     inkscape:window-maximized="1"
     inkscape:current-layer="layer1"><inkscape:grid
       type="xygrid"
       id="grid13673" /></sodipodi:namedview><defs
     id="defs13497"><inkscape:path-effect
       effect="gears"
       id="path-effect1953"
       is_visible="true"
       lpeversion="1"
       teeth="11"
       phi="11"
       min_radius="0.01" /><inkscape:path-effect
       effect="gears"
       id="path-effect1839"
       is_visible="true"
       lpeversion="1"
       teeth="8"
       phi="10"
       min_radius="10" /><inkscape:path-effect
       effect="gears"
       id="path-effect1802"
       is_visible="true"
       lpeversion="1"
       teeth="15"
       phi="5.6"
       min_radius="5" /></defs><g
     inkscape:label="Layer 1"
     inkscape:groupmode="layer"
     id="layer1"
     inkscape:tile-cx="102.52603"
     inkscape:tile-cy="220.92708"
     inkscape:tile-w="29.781245"
     inkscape:tile-h="105.18751"
     inkscape:tile-x0="87.635412"
     inkscape:tile-y0="168.33333"
     style="display:inline"
     transform="translate(-0.41275,0.40678333)"><path
       id="use16606"
       style="fill:#878787;stroke:#000000;stroke-width:0.992601;stroke-miterlimit:0"
       d="m 103.60025,274.75988 h -5.291667 v -44.31554 h 5.291667"
       sodipodi:nodetypes="cccc"
       inkscape:tile-x0="94.249998"
       inkscape:tile-y0="168.33333" /><path
       id="rect17699"
       style="fill:#b7b7b7;fill-opacity:1;stroke:#000000;stroke-width:1;stroke-linejoin:bevel;stroke-miterlimit:0;stroke-dasharray:none"
       d="m 103.60025,285.36504 h -4.224363 c -3.448554,-0.0218 -4.242304,-1.87391 -4.224363,-3.64348 v -3.64347 -3.64348 -3.64348 h 8.448726"
       sodipodi:nodetypes="ccccccc" /><path
       style="fill:#b7b7b7;fill-opacity:1;stroke:#000000;stroke-width:0.826771;stroke-miterlimit:0"
       d="m 103.95365,231.70683 -6.159418,-0.0913 -17.741899,-6.72224 v -8.35263 l 18.884071,0.0217 5.017246,-0.0131"
       id="path17771"
       sodipodi:nodetypes="cccccc" /><path
       style="fill:#c7c7c7;fill-opacity:1;stroke:#000000;stroke-width:1;stroke-miterlimit:0;stroke-dasharray:none"
       d="M 103.60025,216.55155 V 20.759883 l -9.789587,15.874999 1.852087,160.072918 1.322917,5.29167 v 14.55208"
       id="path20599"
       sodipodi:nodetypes="cccccc" /></g><use
     x="0"
     y="0"
     inkscape:tiled-clone-of="#layer1"
     xlink:href="#layer1"
     transform="matrix(-1,0,0,1,206.38397,3.3366665e-6)"
     id="use20594"
     style="display:inline" /><g
     inkscape:label="Layer 1"
     id="layer1-3"
     transform="matrix(0.20606196,0,0,0.20606236,81.520885,188.85548)"
     style="display:inline;stroke-width:4.8529;stroke-dasharray:none"><rect
       style="fill:#bf9224;fill-opacity:1;stroke:#000000;stroke-width:4.8529;stroke-miterlimit:0;stroke-dasharray:none;stroke-opacity:1"
       id="rect10953"
       width="44.329861"
       height="17.108677"
       x="30.758801"
       y="130.61311" /><rect
       style="fill:#bf9224;fill-opacity:1;stroke:#000000;stroke-width:4.8529;stroke-miterlimit:0;stroke-dasharray:none;stroke-opacity:1"
       id="rect10953-1"
       width="44.043442"
       height="17.116251"
       x="133.89957"
       y="130.60933" /><rect
       style="fill:#bf9224;fill-opacity:1;stroke:#000000;stroke-width:4.8529;stroke-miterlimit:0;stroke-dasharray:none;stroke-opacity:1"
       id="rect10953-8"
       width="44.043892"
       height="17.116276"
       x="68.942665"
       y="-113.31015"
       transform="rotate(90)" /><rect
       style="fill:#bf9224;fill-opacity:1;stroke:#000000;stroke-width:4.8529;stroke-miterlimit:0;stroke-dasharray:none;stroke-opacity:1"
       id="rect10953-1-9"
       width="44.043892"
       height="17.116276"
       x="169.05627"
       y="-113.31015"
       transform="rotate(90)" /><ellipse
       style="display:inline;fill:#ff2a00;fill-opacity:1;stroke:#000000;stroke-width:4.8529;stroke-miterlimit:0;stroke-dasharray:none"
       id="path18707"
       cx="104.75201"
       cy="139.16747"
       rx="22.299038"
       ry="22.298994"
       transform="translate(-3.3283679e-6)" /><circle
       style="display:inline;fill:none;fill-opacity:1;stroke:#000000;stroke-width:4.8529;stroke-miterlimit:0;stroke-dasharray:none;stroke-opacity:1"
       id="path2039"
       cx="104.9998"
       cy="141.87195"
       r="75"
       transform="translate(-3.3283679e-6)" /><path
       id="path2009"
       style="display:inline;fill:#bf9224;fill-opacity:1;stroke:#000000;stroke-width:4.8529;stroke-miterlimit:0;stroke-dasharray:none;stroke-opacity:1"
       inkscape:transform-center-x="1.3228346e-06"
       inkscape:transform-center-y="-1.7873655e-06"
       d="m 104.66676,45.157988 a 95.627258,95.627258 0 0 0 -12.530489,0.874366 l -2.39727,11.616345 A 84.521317,84.521317 0 0 0 76.02666,61.322893 L 68.142387,52.461419 A 95.627258,95.627258 0 0 0 46.438285,64.99192 l 3.732072,11.259261 a 84.521317,84.521317 0 0 0 -10.03763,10.03763 L 28.873466,82.556739 A 95.627258,95.627258 0 0 0 16.342965,104.26084 l 8.861474,7.88428 a 84.521317,84.521317 0 0 0 -3.674194,13.71234 l -11.6163456,2.39727 a 95.627258,95.627258 0 0 0 -0.8743655,12.5305 95.627258,95.627258 0 0 0 0.8743655,12.53102 l 11.6168626,2.39727 a 84.521317,84.521317 0 0 0 3.673677,13.71234 l -8.861474,7.88427 a 95.627258,95.627258 0 0 0 12.530501,21.7041 l 11.259778,-3.73258 a 84.521317,84.521317 0 0 0 10.03763,10.03763 l -3.732589,11.25926 a 95.627258,95.627258 0 0 0 21.704102,12.53101 l 7.88479,-8.86199 a 84.521317,84.521317 0 0 0 13.711824,3.6742 l 2.39727,11.61686 a 95.627258,95.627258 0 0 0 12.530489,0.87385 95.627258,95.627258 0 0 0 12.53102,-0.87385 l 2.39727,-11.61738 a 84.521317,84.521317 0 0 0 13.71182,-3.67368 l 7.88479,8.86199 a 95.627258,95.627258 0 0 0 21.70411,-12.53101 l -3.73259,-11.25978 a 84.521317,84.521317 0 0 0 10.03711,-10.03711 l 11.25978,3.73258 a 95.627258,95.627258 0 0 0 12.53102,-21.7041 l -8.86199,-7.88479 a 84.521317,84.521317 0 0 0 3.67367,-13.71182 l 11.61738,-2.39727 a 95.627258,95.627258 0 0 0 0.87385,-12.53102 95.627258,95.627258 0 0 0 -0.82579,-12.52068 l -11.60963,-2.39572 a 84.521317,84.521317 0 0 0 -3.69021,-13.75782 l 8.85734,-7.88065 A 95.627258,95.627258 0 0 0 180.50193,82.543303 L 169.253,86.272275 A 84.521317,84.521317 0 0 0 159.18075,76.199505 L 162.9092,64.950579 A 95.627258,95.627258 0 0 0 141.22215,52.426795 l -7.88065,8.857341 a 84.521317,84.521317 0 0 0 -13.75782,-3.690731 l -2.39572,-11.60911 a 95.627258,95.627258 0 0 0 -12.5212,-0.826307 z m 0,30.627072 a 65,65 0 0 1 65.00017,65.00017 65,65 0 0 1 -65.00017,65.00017 65,65 0 0 1 -65.000154,-65.00017 65,65 0 0 1 65.000154,-65.00017 z" /><path
       id="path2043"
       style="fill:#bf9224;fill-opacity:1;stroke:#000000;stroke-width:2.42645229;stroke-miterlimit:0;stroke-dasharray:none;stroke-opacity:1"
       d="m 104.71767,107.65621 a 31.511124,31.511124 0 0 0 -31.511249,31.51125 31.511124,31.511124 0 0 0 31.511249,31.51126 31.511124,31.511124 0 0 0 31.51126,-31.51126 31.511124,31.511124 0 0 0 -31.51126,-31.51125 z m 0,9.22941 a 22.281727,22.281727 0 0 1 22.28185,22.28184 22.281727,22.281727 0 0 1 -22.28185,22.28184 22.281727,22.281727 0 0 1 -22.281839,-22.28184 22.281727,22.281727 0 0 1 22.281839,-22.28184 z" /></g></svg>
