<?xml version="1.0" encoding="UTF-8"?>
<svg id="_レイヤー_1" data-name="レイヤー 1" xmlns="http://www.w3.org/2000/svg" viewBox="0 0 95.54 62.08">
  <defs>
    <style>
      .cls-1 {
        fill: #e4007f;
      }

      .cls-1, .cls-2, .cls-3, .cls-4 {
        stroke-width: 0px;
      }

      .cls-2 {
        fill: #036eb8;
      }

      .cls-3 {
        fill: #fff;
      }

      .cls-4 {
        fill: #fff100;
      }
    </style>
  </defs>
  <g>
    <path class="cls-3" d="m15.69,6.88h12.21c1.3,0,2.35,1.05,2.35,2.35v7.42c0,1.3-1.05,2.35-2.35,2.35H10.99c-1.3,0-2.35,1.05-2.35,2.35v26.27c0,1.3,1.05,2.35,2.35,2.35h8.27c1.3,0,2.35-1.05,2.35-2.35v-1.36c0-1.3-1.05-2.35-2.35-2.35h-2.03c-1.3,0-2.35-1.05-2.35-2.35v-7.42c0-1.3,1.05-2.35,2.35-2.35h10.67c1.3,0,2.35,1.05,2.35,2.35v25.6c0,1.3-1.05,2.35-2.35,2.35H0V19.88"/>
    <path class="cls-3" d="m42.2,54.59h-5.8c-1.3,0-2.35-1.05-2.35-2.35V2.35c0-1.3,1.05-2.35,2.35-2.35h23.77c1.3,0,2.35,1.05,2.35,2.35v7.29c0,1.3-1.05,2.35-2.35,2.35h-15.23c-1.3,0-2.35,1.05-2.35,2.35v25.93c0,1.3,1.05,2.35,2.35,2.35h15.23c1.3,0,2.35,1.05,2.35,2.35"/>
  </g>
  <path class="cls-2" d="m0,19.88v-10.66c0-1.3,1.05-2.35,2.35-2.35h13.34L0,19.88Z"/>
  <path class="cls-3" d="m80.99,6.88h12.21c1.3,0,2.35,1.05,2.35,2.35v7.42c0,1.3-1.05,2.35-2.35,2.35h-16.91c-1.3,0-2.35,1.05-2.35,2.35v26.27c0,1.3,1.05,2.35,2.35,2.35h8.27c1.3,0,2.35-1.05,2.35-2.35v-1.36c0-1.3-1.05-2.35-2.35-2.35h-2.03c-1.3,0-2.35-1.05-2.35-2.35v-7.42c0-1.3,1.05-2.35,2.35-2.35h10.67c1.3,0,2.35,1.05,2.35,2.35v25.6c0,1.3-1.05,2.35-2.35,2.35h-27.9V19.88"/>
  <path class="cls-4" d="m65.3,19.88v-10.66c0-1.3,1.05-2.35,2.35-2.35h13.34l-15.69,13.01Z"/>
  <line class="cls-3" x1="62.52" y1="44.96" x2="42.2" y2="54.59"/>
  <path class="cls-1" d="m42.2,54.59h17.97c1.3,0,2.35-1.05,2.35-2.35v-7.29l-20.32,9.64"/>
</svg>